<mxfile host="app.diagrams.net" modified="2021-09-21T14:54:10.527Z" agent="5.0 (Macintosh; Intel Mac OS X 10_15_7) AppleWebKit/537.36 (KHTML, like Gecko) Chrome/93.0.4577.63 Safari/537.36" etag="w-pLnNiRtGnr-onxnVqp" version="14.9.9" type="github">
  <diagram id="OjpjWs59GLYDyoE2Nn7r" name="Page-1">
    <mxGraphModel dx="1298" dy="840" grid="1" gridSize="10" guides="1" tooltips="1" connect="1" arrows="1" fold="1" page="1" pageScale="1" pageWidth="850" pageHeight="1100" math="0" shadow="0">
      <root>
        <mxCell id="0" />
        <mxCell id="1" parent="0" />
        <mxCell id="-mJDDIEVKRkSHCF7esFn-1" value="GitLab" style="whiteSpace=wrap;html=1;aspect=fixed;" vertex="1" parent="1">
          <mxGeometry x="425" y="120" width="80" height="80" as="geometry" />
        </mxCell>
        <mxCell id="-mJDDIEVKRkSHCF7esFn-2" value="MagNETO" style="whiteSpace=wrap;html=1;aspect=fixed;" vertex="1" parent="1">
          <mxGeometry x="425" y="240" width="80" height="80" as="geometry" />
        </mxCell>
        <mxCell id="-mJDDIEVKRkSHCF7esFn-3" value="GHE" style="whiteSpace=wrap;html=1;aspect=fixed;" vertex="1" parent="1">
          <mxGeometry x="425" y="360" width="80" height="80" as="geometry" />
        </mxCell>
        <mxCell id="-mJDDIEVKRkSHCF7esFn-4" value="Docker Repo" style="whiteSpace=wrap;html=1;aspect=fixed;" vertex="1" parent="1">
          <mxGeometry x="140" y="130" width="80" height="80" as="geometry" />
        </mxCell>
        <mxCell id="-mJDDIEVKRkSHCF7esFn-5" value="Chart Repo" style="whiteSpace=wrap;html=1;aspect=fixed;" vertex="1" parent="1">
          <mxGeometry x="140" y="240" width="80" height="80" as="geometry" />
        </mxCell>
      </root>
    </mxGraphModel>
  </diagram>
</mxfile>
